<svg xmlns="http://www.w3.org/2000/svg" xmlns:xlink="http://www.w3.org/1999/xlink" width="3041" zoomAndPan="magnify" viewBox="0 0 2280.75 833.249974" height="1111" preserveAspectRatio="xMidYMid meet" version="1.0"><defs><clipPath id="9d85fc603c"><path d="M 869.625 650.222656 L 930.925781 650.222656 L 930.925781 667.28125 L 869.625 667.28125 Z M 890.253906 667.28125 L 910.300781 667.28125 L 910.300781 735.429688 L 890.253906 735.429688 Z M 890.253906 667.28125 " clip-rule="nonzero"/></clipPath><clipPath id="0816a2dcbb"><path d="M 984.59375 650.222656 L 1004.679688 650.222656 L 1004.679688 680.894531 L 984.59375 680.894531 Z M 938.769531 650.222656 L 958.859375 650.222656 L 958.859375 680.894531 L 938.769531 680.894531 Z M 938.769531 680.894531 L 1004.679688 680.894531 L 1004.679688 697.953125 L 938.769531 697.953125 Z M 938.769531 697.953125 L 958.859375 697.953125 L 958.859375 735.429688 L 938.769531 735.429688 Z M 984.59375 697.953125 L 1004.679688 697.953125 L 1004.679688 735.429688 L 984.59375 735.429688 Z M 984.59375 697.953125 " clip-rule="nonzero"/></clipPath><clipPath id="cf94bbc5a6"><path d="M 1017 650.222656 L 1075 650.222656 L 1075 736 L 1017 736 Z M 1017 650.222656 " clip-rule="nonzero"/></clipPath><clipPath id="c1ea7d58d4"><path d="M 1074.117188 667.28125 L 1061.914062 667.28125 C 1046.597656 667.28125 1039.253906 676.785156 1037.632812 684.921875 L 1074.117188 684.921875 L 1074.117188 700.734375 L 1037.632812 700.734375 C 1039.253906 708.867188 1046.597656 718.371094 1061.914062 718.371094 L 1074.117188 718.371094 L 1074.117188 735.429688 L 1063.65625 735.429688 C 1031.117188 735.429688 1017.007812 713.765625 1017.007812 692.847656 C 1017.007812 671.929688 1031.117188 650.222656 1063.65625 650.222656 L 1074.117188 650.222656 Z M 1074.117188 667.28125 " clip-rule="nonzero"/></clipPath><clipPath id="5d91b2c126"><path d="M 1125.777344 648.761719 L 1190 648.761719 L 1190 735.921875 L 1125.777344 735.921875 Z M 1125.777344 648.761719 " clip-rule="nonzero"/></clipPath><clipPath id="9bbd9c5520"><path d="M 1125.777344 735.421875 L 1125.777344 679.183594 C 1125.777344 657.644531 1138.519531 648.761719 1157.363281 648.761719 C 1173.382812 648.761719 1185.957031 658.972656 1185.957031 673.582031 C 1185.957031 680.015625 1182.722656 686.488281 1176.453125 689.894531 C 1185.417969 693.917969 1189.488281 701.722656 1189.488281 710.480469 C 1189.488281 724.589844 1179.441406 735.421875 1163.589844 735.421875 L 1149.765625 735.421875 L 1149.765625 718.40625 L 1160.476562 718.40625 C 1166.160156 718.40625 1169.441406 714.378906 1169.441406 708.902344 C 1169.441406 701.597656 1164.707031 699.023438 1159.148438 699.023438 L 1149.765625 699.023438 L 1149.765625 684.164062 L 1154.789062 684.164062 C 1161.554688 684.164062 1165.914062 681.261719 1165.914062 675.285156 C 1165.914062 669.929688 1162.261719 665.777344 1155.867188 665.777344 C 1149.351562 665.777344 1144.746094 669.183594 1144.746094 677.484375 L 1144.746094 735.421875 Z M 1125.777344 735.421875 " clip-rule="nonzero"/></clipPath><clipPath id="4bba7d8893"><path d="M 1197 650 L 1256 650 L 1256 735.921875 L 1197 735.921875 Z M 1197 650 " clip-rule="nonzero"/></clipPath><clipPath id="a0bae5b879"><path d="M 1254.980469 667.273438 L 1242.820312 667.273438 C 1227.503906 667.273438 1220.15625 676.777344 1218.539062 684.914062 L 1255.019531 684.914062 L 1255.019531 700.726562 L 1218.539062 700.726562 C 1220.15625 708.859375 1227.503906 718.363281 1242.820312 718.363281 L 1255.019531 718.363281 L 1255.019531 735.421875 L 1244.5625 735.421875 C 1212.023438 735.421875 1197.910156 713.757812 1197.910156 692.839844 C 1197.910156 671.921875 1212.023438 650.214844 1244.5625 650.214844 L 1255.019531 650.214844 Z M 1254.980469 667.273438 " clip-rule="nonzero"/></clipPath><clipPath id="565be53067"><path d="M 1266 650 L 1326 650 L 1326 735.921875 L 1266 735.921875 Z M 1266 650 " clip-rule="nonzero"/></clipPath><clipPath id="910b2d20a0"><path d="M 1321.71875 666.027344 L 1294.617188 666.027344 C 1289.71875 666.027344 1287.558594 668.933594 1287.558594 672.460938 C 1287.558594 680.140625 1325.246094 691.800781 1325.246094 709.605469 C 1325.246094 721.519531 1319.269531 735.421875 1298.390625 735.421875 L 1266.683594 735.421875 L 1266.683594 718.40625 L 1297.851562 718.40625 C 1301.378906 718.40625 1304.078125 715.957031 1304.078125 712.304688 C 1304.078125 703.296875 1266.394531 694.292969 1266.394531 672.875 C 1266.394531 657.0625 1279.257812 650.214844 1289.96875 650.214844 L 1321.71875 650.214844 Z M 1321.71875 666.027344 " clip-rule="nonzero"/></clipPath><clipPath id="5aff0d3982"><path d="M 1329.1875 650.214844 L 1390.449219 650.214844 L 1390.449219 667.273438 L 1329.1875 667.273438 Z M 1349.773438 667.273438 L 1369.863281 667.273438 L 1369.863281 735.421875 L 1349.773438 735.421875 Z M 1349.773438 667.273438 " clip-rule="nonzero"/></clipPath><clipPath id="ac81b0bfbe"><path d="M 1433.589844 650 L 1483 650 L 1483 735.921875 L 1433.589844 735.921875 Z M 1433.589844 650 " clip-rule="nonzero"/></clipPath><clipPath id="6436e07719"><path d="M 1433.589844 735.425781 L 1433.589844 676.984375 C 1433.589844 661.628906 1442.554688 650.214844 1460.984375 650.214844 L 1482.816406 650.214844 L 1482.816406 667.273438 L 1465.714844 667.273438 C 1457.457031 667.273438 1453.636719 670.429688 1453.636719 677.484375 L 1453.636719 686.492188 L 1482.773438 686.492188 L 1482.773438 703.546875 L 1453.679688 703.546875 L 1453.679688 735.425781 Z M 1433.589844 735.425781 " clip-rule="nonzero"/></clipPath><clipPath id="6692fc3f9e"><path d="M 1492 648.761719 L 1589 648.761719 L 1589 737 L 1492 737 Z M 1492 648.761719 " clip-rule="nonzero"/></clipPath><clipPath id="a9639b0fb0"><path d="M 1512.242188 692.839844 C 1512.242188 707.078125 1522.824219 719.363281 1540.589844 719.363281 C 1558.351562 719.363281 1568.9375 707.078125 1568.9375 692.839844 C 1568.9375 678.605469 1558.351562 666.320312 1540.589844 666.320312 C 1522.824219 666.320312 1512.242188 678.605469 1512.242188 692.839844 M 1588.984375 692.839844 C 1588.984375 716.832031 1568.894531 736.917969 1540.589844 736.917969 C 1512.285156 736.917969 1492.152344 716.789062 1492.152344 692.839844 C 1492.152344 668.894531 1512.242188 648.761719 1540.589844 648.761719 C 1568.9375 648.761719 1588.984375 668.851562 1588.984375 692.839844 " clip-rule="nonzero"/></clipPath><clipPath id="43522275f4"><path d="M 1600 648.761719 L 1665 648.761719 L 1665 735.921875 L 1600 735.921875 Z M 1600 648.761719 " clip-rule="nonzero"/></clipPath><clipPath id="e6c80d2043"><path d="M 1600.398438 735.425781 L 1600.398438 676.984375 C 1600.398438 664.078125 1608.28125 648.761719 1634.015625 648.761719 C 1653.273438 648.761719 1663.027344 661.917969 1663.027344 674.082031 C 1663.027344 681.882812 1658.960938 688.441406 1651.238281 691.71875 C 1662.777344 695.621094 1664.398438 701.222656 1664.398438 711.1875 L 1664.398438 735.425781 L 1644.308594 735.425781 L 1644.308594 711.308594 C 1644.308594 704.753906 1641.609375 701.554688 1633.601562 701.554688 L 1626.003906 701.554688 L 1626.003906 685.785156 C 1634.679688 685.785156 1642.9375 684.207031 1642.9375 675.824219 C 1642.9375 669.265625 1637.625 665.863281 1631.691406 665.863281 C 1625.757812 665.863281 1620.445312 669.265625 1620.445312 675.824219 L 1620.445312 735.425781 Z M 1600.398438 735.425781 " clip-rule="nonzero"/></clipPath><clipPath id="e3c34d60f7"><path d="M 875.3125 203.078125 L 1119.480469 203.078125 L 1119.480469 265.210938 L 875.3125 265.210938 Z M 961.847656 265.210938 L 1033.566406 265.210938 L 1033.566406 501.824219 L 961.847656 501.824219 Z M 961.847656 265.210938 " clip-rule="nonzero"/></clipPath><clipPath id="f54d9d81cb"><path d="M 869.625 197.394531 L 1125.125 197.394531 L 1125.125 208.722656 L 869.625 208.722656 Z M 1113.792969 208.722656 L 1125.125 208.722656 L 1125.125 259.523438 L 1113.792969 259.523438 Z M 869.625 208.722656 L 880.957031 208.722656 L 880.957031 259.523438 L 869.625 259.523438 Z M 869.625 259.523438 L 967.535156 259.523438 L 967.535156 270.855469 L 869.625 270.855469 Z M 1027.878906 259.523438 L 1125.125 259.523438 L 1125.125 270.898438 L 1027.878906 270.898438 Z M 1027.878906 270.898438 L 1039.210938 270.898438 L 1039.210938 496.140625 L 1027.878906 496.140625 Z M 956.160156 270.855469 L 967.535156 270.855469 L 967.535156 496.140625 L 956.160156 496.140625 Z M 956.160156 496.140625 L 1039.210938 496.140625 L 1039.210938 507.46875 L 956.160156 507.46875 Z M 956.160156 496.140625 " clip-rule="nonzero"/></clipPath><clipPath id="f8df55cf7f"><path d="M 1125 194 L 1375.972656 194 L 1375.972656 510 L 1125 510 Z M 1125 194 " clip-rule="nonzero"/></clipPath><clipPath id="50655d8190"><path d="M 1253.121094 509.089844 C 1214.109375 509.089844 1182.898438 500.039062 1160.277344 482.234375 C 1137.242188 464.058594 1125.582031 438.863281 1125.582031 407.320312 L 1125.582031 401.632812 L 1193.648438 401.632812 L 1194.351562 406.492188 C 1196.054688 418.445312 1199.292969 427.324219 1204.023438 432.929688 C 1212.738281 443.347656 1228.429688 448.574219 1250.714844 448.574219 C 1264.535156 448.574219 1275.742188 447.125 1284.042969 444.257812 C 1298.941406 439.070312 1305.875 430.191406 1305.875 416.328125 C 1305.875 408.773438 1302.71875 403.292969 1295.996094 399.144531 C 1288.195312 394.453125 1275.367188 390.136719 1257.9375 386.402344 L 1226.851562 379.597656 C 1195.308594 372.582031 1174.058594 365.070312 1161.855469 356.644531 C 1140.9375 342.324219 1130.269531 319.832031 1130.269531 289.738281 C 1130.269531 262.472656 1140.4375 239.4375 1160.484375 221.339844 C 1180.492188 203.371094 1209.875 194.28125 1247.808594 194.28125 C 1279.5625 194.28125 1307.121094 202.746094 1329.65625 219.515625 C 1352.648438 236.65625 1364.851562 261.640625 1365.972656 293.847656 L 1366.179688 299.699219 L 1297.242188 299.699219 L 1296.910156 294.386719 C 1295.953125 279.074219 1289.355469 268.53125 1276.820312 262.179688 C 1268.105469 257.78125 1256.941406 255.582031 1243.578125 255.582031 C 1228.882812 255.582031 1217.136719 258.40625 1208.671875 264.007812 C 1200.828125 269.152344 1197.050781 276.167969 1197.050781 285.464844 C 1197.050781 293.683594 1200.578125 299.453125 1208.089844 303.519531 C 1211.992188 305.71875 1221.457031 309.414062 1244.863281 314.851562 L 1295.375 326.804688 C 1318.242188 332.15625 1335.714844 339.542969 1347.335938 348.71875 C 1365.890625 363.328125 1375.308594 384.578125 1375.308594 411.925781 C 1375.308594 439.734375 1364.394531 463.183594 1342.894531 481.65625 C 1321.519531 499.832031 1291.347656 509.046875 1253.164062 509.046875 " clip-rule="nonzero"/></clipPath><clipPath id="8cbd534348"><path d="M 1119 188.675781 L 1381 188.675781 L 1381 515 L 1119 515 Z M 1119 188.675781 " clip-rule="nonzero"/></clipPath><clipPath id="03b784e530"><path d="M 1247.808594 188.675781 C 1208.421875 188.675781 1177.75 198.265625 1156.707031 217.148438 C 1135.375 236.40625 1124.585938 260.851562 1124.585938 289.78125 C 1124.585938 321.863281 1136.039062 345.9375 1158.660156 361.375 C 1171.441406 370.214844 1193.355469 378.019531 1225.5625 385.15625 L 1256.691406 391.964844 C 1277.652344 396.445312 1288.070312 401.011719 1293.089844 404.042969 C 1298.03125 407.070312 1300.1875 410.765625 1300.1875 416.328125 C 1300.1875 427.742188 1294.792969 434.507812 1282.175781 438.90625 C 1274.539062 441.5625 1263.957031 442.890625 1250.757812 442.890625 C 1230.210938 442.890625 1215.976562 438.324219 1208.421875 429.277344 C 1204.355469 424.460938 1201.53125 416.535156 1199.996094 405.660156 L 1198.628906 395.90625 L 1119.894531 395.90625 L 1119.894531 407.238281 C 1119.894531 440.605469 1132.304688 467.292969 1156.75 486.59375 C 1180.367188 505.230469 1212.78125 514.648438 1253.082031 514.648438 C 1292.675781 514.648438 1324.09375 504.980469 1346.507812 485.929688 C 1369.375 466.339844 1380.914062 441.4375 1380.914062 411.886719 C 1380.914062 382.75 1370.746094 359.964844 1350.738281 344.234375 C 1338.289062 334.398438 1320.566406 326.886719 1296.578125 321.242188 L 1246.191406 309.371094 C 1222.203125 303.808594 1213.820312 300.28125 1210.953125 298.664062 C 1205.144531 295.507812 1202.738281 291.609375 1202.738281 285.507812 C 1202.738281 278.078125 1205.558594 272.929688 1211.824219 268.78125 C 1219.339844 263.800781 1230.046875 261.308594 1243.617188 261.308594 C 1256.070312 261.308594 1266.402344 263.34375 1274.332031 267.328125 C 1285.082031 272.765625 1290.476562 281.523438 1291.304688 294.804688 L 1291.96875 305.429688 L 1372.113281 305.429688 L 1371.699219 293.683594 C 1370.496094 259.691406 1357.503906 233.210938 1333.101562 215.03125 C 1309.484375 197.558594 1280.804688 188.675781 1247.808594 188.675781 M 1247.808594 200.007812 C 1278.480469 200.007812 1304.628906 208.058594 1326.292969 224.121094 C 1347.875 240.226562 1359.289062 263.507812 1360.328125 294.097656 L 1302.554688 294.097656 C 1301.433594 276.75 1293.796875 264.503906 1279.351562 257.199219 C 1269.722656 252.34375 1257.769531 249.980469 1243.535156 249.980469 C 1227.640625 249.980469 1214.980469 253.09375 1205.519531 259.359375 C 1196.054688 265.625 1191.363281 274.34375 1191.363281 285.546875 C 1191.363281 295.800781 1196.011719 303.519531 1205.351562 308.582031 C 1211.371094 311.984375 1224.027344 315.929688 1243.535156 320.453125 L 1294.003906 332.40625 C 1316.125 337.59375 1332.769531 344.566406 1343.765625 353.242188 C 1360.992188 366.8125 1369.582031 386.320312 1369.582031 411.96875 C 1369.582031 438.242188 1359.414062 460.03125 1339.160156 477.378906 C 1318.824219 494.6875 1290.144531 503.402344 1253.121094 503.402344 C 1215.230469 503.402344 1185.472656 494.851562 1163.804688 477.792969 C 1142.097656 460.652344 1131.265625 437.203125 1131.265625 407.320312 L 1188.75 407.320312 C 1190.617188 420.394531 1194.226562 430.148438 1199.707031 436.621094 C 1209.585938 448.453125 1226.683594 454.304688 1250.757812 454.304688 C 1265.199219 454.304688 1276.945312 452.808594 1285.910156 449.65625 C 1303.011719 443.679688 1311.519531 432.597656 1311.519531 416.367188 C 1311.519531 406.863281 1307.328125 399.519531 1298.941406 394.371094 C 1290.558594 389.308594 1277.277344 384.824219 1259.097656 380.925781 L 1228.011719 374.117188 C 1197.550781 367.351562 1176.507812 359.964844 1165.050781 352.039062 C 1145.628906 338.757812 1135.914062 318.003906 1135.914062 289.78125 C 1135.957031 264.050781 1145.417969 242.632812 1164.304688 225.617188 C 1183.3125 208.558594 1211.164062 200.007812 1247.808594 200.007812 " clip-rule="nonzero"/></clipPath><clipPath id="abe87d2d1b"><path d="M 1473 203 L 1687 203 L 1687 346.394531 L 1473 346.394531 Z M 1473 203 " clip-rule="nonzero"/></clipPath><clipPath id="d3be9193e8"><path d="M 1473.839844 346.351562 L 1594.328125 203.078125 L 1686.839844 203.078125 L 1565.566406 346.351562 Z M 1473.839844 346.351562 " clip-rule="nonzero"/></clipPath><clipPath id="60cfb38018"><path d="M 1461 197 L 1699.707031 197 L 1699.707031 353 L 1461 353 Z M 1461 197 " clip-rule="nonzero"/></clipPath><clipPath id="fe6dba0357"><path d="M 1699.042969 197.394531 L 1591.710938 197.394531 L 1588.308594 201.417969 L 1477.328125 333.402344 L 1461.640625 352.039062 L 1568.179688 352.039062 L 1571.582031 348.011719 L 1683.269531 216.070312 Z M 1674.597656 208.722656 L 1562.910156 340.707031 L 1486 340.707031 L 1596.984375 208.722656 Z M 1674.597656 208.722656 " clip-rule="nonzero"/></clipPath><clipPath id="9316be2073"><path d="M 1421 203 L 1693 203 L 1693 502 L 1421 502 Z M 1421 203 " clip-rule="nonzero"/></clipPath><clipPath id="df4d47d70c"><path d="M 1600.636719 501.824219 L 1492.269531 363.078125 L 1491.6875 400.097656 L 1491.6875 501.824219 L 1421.128906 501.824219 L 1421.128906 203.078125 L 1491.6875 203.078125 L 1491.6875 335.351562 L 1565.730469 335.019531 L 1692.070312 501.824219 Z M 1600.636719 501.824219 " clip-rule="nonzero"/></clipPath><clipPath id="686ae47e40"><path d="M 1415 197 L 1703.855469 197 L 1703.855469 508 L 1415 508 Z M 1415 197 " clip-rule="nonzero"/></clipPath><clipPath id="d82fd0aada"><path d="M 1497.332031 197.394531 L 1415.445312 197.394531 L 1415.445312 507.46875 L 1497.332031 507.46875 L 1497.332031 400.015625 L 1497.664062 379.222656 L 1594.453125 503.113281 L 1597.855469 507.46875 L 1703.484375 507.46875 L 1689.703125 489.292969 L 1571.957031 333.859375 L 1568.511719 329.335938 L 1562.824219 329.375 L 1497.289062 329.667969 L 1497.289062 208.722656 Z M 1486 208.722656 L 1486 341.039062 L 1562.910156 340.707031 L 1680.65625 496.140625 L 1603.375 496.140625 L 1486.875 346.933594 L 1486 400.015625 L 1486 496.140625 L 1426.777344 496.140625 L 1426.777344 208.722656 Z M 1486 208.722656 " clip-rule="nonzero"/></clipPath><clipPath id="4bcefe1660"><path d="M 93.835938 221 L 475 221 L 475 562 L 93.835938 562 Z M 93.835938 221 " clip-rule="nonzero"/></clipPath><clipPath id="0e1b4fb46f"><path d="M 236.085938 311.089844 C 217.566406 299.585938 206.273438 288.328125 206.273438 288.328125 L 181.339844 283.699219 C 181.339844 283.699219 236.085938 259.429688 266.105469 250.589844 C 296.125 241.753906 390.644531 228.953125 390.644531 228.953125 L 394.148438 240.875 C 394.148438 240.875 368.546875 238.667969 350.453125 241.753906 C 332.355469 244.839844 320.851562 247.046875 320.851562 247.046875 C 320.851562 247.046875 330.144531 253.222656 334.5625 262.515625 C 338.984375 271.808594 343.824219 283.277344 343.824219 283.277344 L 369.460938 274.4375 C 369.460938 274.4375 350.03125 302.707031 331.023438 312.84375 C 312.011719 322.976562 265.648438 340.652344 265.648438 340.652344 C 265.648438 340.652344 254.601562 322.558594 236.085938 311.054688 M 449.105469 322.101562 C 449.105469 322.101562 449.105469 369.902344 439.882812 404.972656 C 430.660156 440.046875 411.265625 466.804688 411.265625 466.804688 C 411.265625 466.804688 391.90625 440.957031 368.828125 417.878906 C 345.75 394.804688 285.746094 369.027344 285.746094 369.027344 C 285.746094 369.027344 307.347656 364.851562 334.109375 377.757812 C 360.867188 390.664062 402.042969 427.140625 402.042969 427.140625 L 403.898438 422.511719 C 403.898438 422.511719 386.015625 406.273438 377.246094 397.503906 C 368.476562 388.734375 334.667969 369.9375 334.667969 369.9375 C 334.667969 369.9375 357.746094 369.9375 380.824219 383.757812 C 403.898438 397.574219 423.292969 415.144531 423.292969 415.144531 C 423.292969 415.144531 433.042969 369.9375 433.042969 348.71875 C 433.042969 327.5 430.90625 306.285156 430.90625 306.285156 C 430.90625 306.285156 423.257812 306.25 414.984375 306.25 C 406.707031 306.25 414.984375 295.203125 423.292969 295.203125 C 431.605469 295.203125 454.191406 306.738281 454.191406 306.738281 L 458.332031 302.566406 L 393.730469 271.210938 L 445.390625 261.988281 L 419.542969 222.289062 C 419.542969 222.289062 338.316406 215.835938 258.984375 234.28125 C 179.65625 252.730469 93.835938 326.554688 93.835938 326.554688 C 93.835938 326.554688 234.609375 318.769531 315.308594 399.433594 C 360.65625 444.816406 398.324219 479.921875 398.324219 496.546875 C 398.324219 513.167969 355.746094 561.460938 355.746094 561.460938 C 355.746094 561.460938 402.078125 532.316406 439.847656 447.410156 C 458.472656 405.570312 474.007812 343.144531 474.007812 343.144531 Z M 449.105469 322.101562 " clip-rule="nonzero"/></clipPath><clipPath id="385de62433"><path d="M 434.027344 219 L 720 219 L 720 348 L 434.027344 348 Z M 434.027344 219 " clip-rule="nonzero"/></clipPath><clipPath id="4bf09a0b5a"><path d="M 434.796875 219.691406 C 434.796875 219.691406 544.289062 218.816406 608.332031 258.097656 C 672.371094 297.375 719.15625 340.6875 719.15625 340.6875 C 719.15625 340.6875 722.242188 353.035156 708.5625 344.652344 C 694.886719 336.269531 685.59375 310.632812 608.785156 275.316406 C 531.980469 240 498.875 245.292969 490.875 245.292969 C 482.878906 245.292969 455.558594 247.503906 455.558594 247.503906 L 434.832031 219.65625 " clip-rule="nonzero"/></clipPath><clipPath id="3dc61e4c90"><path d="M 451 92.945312 L 591.847656 92.945312 L 591.847656 234 L 451 234 Z M 451 92.945312 " clip-rule="nonzero"/></clipPath><clipPath id="3c38a68f43"><path d="M 451.140625 204.226562 C 451.140625 204.226562 471.515625 165.402344 485.160156 149.902344 C 507.640625 124.300781 558.003906 92.945312 558.003906 92.945312 C 558.003906 92.945312 518.476562 132.890625 508.972656 142.394531 C 499.46875 151.898438 497.085938 168.03125 497.085938 168.03125 C 497.085938 168.03125 510.726562 158.316406 533.277344 149.9375 C 555.828125 141.554688 566.839844 141.554688 566.839844 141.554688 L 497.503906 198.476562 L 563.300781 156.53125 L 519.109375 209.101562 L 568.59375 168.910156 L 545.167969 217.519531 L 585.324219 187.496094 L 564.597656 221.9375 L 591.53125 209.136719 L 582.660156 233.40625 C 582.660156 233.40625 550.882812 220.148438 513.355469 212.222656 C 475.832031 204.296875 451.105469 204.261719 451.105469 204.261719 " clip-rule="nonzero"/></clipPath><clipPath id="f4bb32a619"><path d="M 724 343 L 832 343 L 832 578 L 724 578 Z M 724 343 " clip-rule="nonzero"/></clipPath><clipPath id="89c131f493"><path d="M 739.917969 343.773438 C 739.917969 343.773438 801.957031 344.898438 814.550781 357.453125 C 827.140625 370.007812 829.769531 372.671875 829.769531 372.671875 L 786.28125 359.664062 C 786.28125 359.664062 808.585938 371.796875 818.089844 381.300781 C 827.5625 390.804688 831.347656 401.640625 831.347656 401.640625 C 831.347656 401.640625 807.957031 383.089844 788.527344 378.214844 C 769.097656 373.339844 750.964844 368.5 750.964844 368.5 C 750.964844 368.5 773.480469 380.878906 788.949219 404.273438 C 804.414062 427.664062 822.511719 459.929688 822.511719 459.929688 C 822.511719 459.929688 789.367188 420.617188 776.566406 407.816406 C 763.765625 395.015625 756.71875 388.386719 756.71875 388.386719 C 756.71875 388.386719 792.488281 436.503906 796.910156 472.730469 C 801.328125 508.960938 796.910156 577.382812 796.910156 577.382812 C 796.910156 577.382812 789.824219 516.011719 782.320312 493.039062 C 774.8125 470.066406 758.050781 426.332031 746.125 405.148438 C 734.199219 383.964844 724.066406 367.625 724.066406 367.625 Z M 739.917969 343.773438 " clip-rule="nonzero"/></clipPath><clipPath id="30977fcca3"><path d="M 489 264 L 528 264 L 528 401 L 489 401 Z M 489 264 " clip-rule="nonzero"/></clipPath><clipPath id="a36317a64d"><path d="M 489.125 264.304688 L 524.859375 264.304688 C 524.859375 264.304688 530.15625 316.839844 526.195312 338.480469 C 522.230469 360.117188 506.34375 400.765625 506.34375 400.765625 L 492.210938 400.765625 C 492.210938 400.765625 504.097656 355.699219 500.589844 328.765625 C 497.050781 301.828125 489.125 264.304688 489.125 264.304688 " clip-rule="nonzero"/></clipPath><clipPath id="452ed11045"><path d="M 526 266 L 567.296875 266 L 567.296875 394 L 526 394 Z M 526 266 " clip-rule="nonzero"/></clipPath><clipPath id="678b35e131"><path d="M 540.328125 266.023438 L 567.261719 274.4375 C 567.261719 274.4375 565.929688 326.097656 554.917969 349.070312 C 543.90625 372.042969 526.230469 393.226562 526.230469 393.226562 C 526.230469 393.226562 542.117188 351.699219 542.117188 327.433594 C 542.117188 303.164062 540.328125 266.023438 540.328125 266.023438 " clip-rule="nonzero"/></clipPath><clipPath id="ee751705b4"><path d="M 546 278.824219 L 605.875 278.824219 L 605.875 393 L 546 393 Z M 546 278.824219 " clip-rule="nonzero"/></clipPath><clipPath id="1fa74e8920"><path d="M 587.988281 280.613281 L 605.210938 290.328125 C 605.210938 290.328125 595.285156 336.480469 580.027344 351.699219 C 564.808594 366.921875 546.042969 392.769531 546.042969 392.769531 C 546.042969 392.769531 576.941406 338.445312 580.027344 326.519531 C 583.148438 314.59375 587.988281 278.824219 587.988281 278.824219 " clip-rule="nonzero"/></clipPath><clipPath id="32ffff9c30"><path d="M 574 293 L 633 293 L 633 374 L 574 374 Z M 574 293 " clip-rule="nonzero"/></clipPath><clipPath id="43051a03c1"><path d="M 614.957031 293.449219 C 614.957031 293.449219 619.378906 304.460938 604.789062 330.9375 C 590.199219 357.417969 574.101562 373.550781 574.101562 373.550781 C 574.101562 373.550781 605.664062 354.789062 614.957031 338.898438 C 624.253906 323.011719 632.179688 306.214844 632.179688 306.214844 Z M 614.957031 293.449219 " clip-rule="nonzero"/></clipPath><clipPath id="84093bcaa7"><path d="M 614 313 L 658.480469 313 L 658.480469 353 L 614 353 Z M 614 313 " clip-rule="nonzero"/></clipPath><clipPath id="b784562ccf"><path d="M 649.398438 313.71875 C 649.398438 313.71875 645.644531 325.855469 639.683594 331.816406 C 633.757812 337.777344 614.503906 350.367188 614.503906 350.367188 C 614.503906 350.367188 627.761719 358.75 640.980469 345.527344 C 654.238281 332.273438 658.203125 324.765625 658.203125 322.101562 C 658.203125 319.433594 649.363281 313.71875 649.363281 313.71875 " clip-rule="nonzero"/></clipPath><clipPath id="d77b48c554"><path d="M 457 405.078125 L 623 405.078125 L 623 496 L 457 496 Z M 457 405.078125 " clip-rule="nonzero"/></clipPath><clipPath id="b0b8eea6c8"><path d="M 478.039062 405.113281 C 478.039062 405.113281 555.335938 412.621094 564.632812 416.617188 C 573.890625 420.582031 622.464844 431.171875 622.464844 431.171875 C 622.464844 431.171875 570.804688 427.210938 553.128906 425 C 535.488281 422.789062 516.058594 420.582031 516.058594 420.582031 C 516.058594 420.582031 542.117188 430.296875 554.460938 435.171875 C 566.804688 440.046875 594.230469 454.601562 594.230469 454.601562 C 594.230469 454.601562 573.46875 452.847656 551.832031 446.21875 C 530.191406 439.589844 528.4375 441.34375 530.191406 441.34375 C 531.945312 441.34375 557.125 455.019531 565.929688 459.019531 C 574.800781 462.980469 574.800781 468.734375 574.800781 468.734375 L 546.078125 457.230469 L 560.003906 471.152344 C 560.003906 471.152344 531.523438 458.5625 519.144531 453.722656 C 506.765625 448.882812 503.679688 449.726562 518.476562 460.5625 C 533.277344 471.398438 538.152344 482.867188 539.90625 482.867188 C 541.660156 482.867188 552.285156 507.136719 527.527344 487.285156 C 502.765625 467.4375 493.085938 457.6875 487.789062 452.390625 C 482.496094 447.09375 457.3125 447.09375 457.3125 447.09375 L 478.039062 405.148438 " clip-rule="nonzero"/></clipPath><clipPath id="377148d797"><path d="M 139.429688 442 L 385 442 L 385 611 L 139.429688 611 Z M 139.429688 442 " clip-rule="nonzero"/></clipPath><clipPath id="994b9b0156"><path d="M 343.824219 442.21875 C 343.824219 442.21875 379.386719 482.167969 383.136719 485.917969 C 386.890625 489.671875 383.136719 496.511719 383.136719 501.386719 C 383.136719 506.261719 358.378906 557.042969 330.601562 576.4375 C 302.753906 595.867188 257.300781 610.421875 223.28125 610.421875 C 174.710938 610.421875 139.8125 546.835938 139.8125 546.835938 C 139.8125 546.835938 192.804688 585.695312 221.496094 587.90625 C 239.554688 589.308594 288.199219 576.4375 306.964844 552.800781 C 327.164062 527.371094 343.824219 442.183594 343.824219 442.183594 " clip-rule="nonzero"/></clipPath><clipPath id="a2eaaea4d0"><path d="M 122 334 L 314 334 L 314 431 L 122 431 Z M 122 334 " clip-rule="nonzero"/></clipPath><clipPath id="bcbd53c1bb"><path d="M 122.59375 334.480469 C 122.59375 334.480469 209.992188 345.527344 228.578125 353.488281 C 247.097656 361.414062 297.003906 391.894531 305.386719 400.273438 C 313.765625 408.65625 316.679688 415.953125 311.136719 421.457031 C 305.59375 426.964844 300.089844 430.261719 300.089844 430.261719 L 293.425781 404.203125 L 275.785156 416.128906 L 262.070312 382.144531 L 252.8125 412.585938 L 229.457031 372.464844 L 220.617188 415.285156 L 199.855469 365.835938 L 192.804688 418.371094 L 159.242188 353.035156 L 149.074219 372.007812 Z M 122.59375 334.480469 " clip-rule="nonzero"/></clipPath><clipPath id="0f762afebc"><path d="M 170 501 L 321 501 L 321 580 L 170 580 Z M 170 501 " clip-rule="nonzero"/></clipPath><clipPath id="e2c425550d"><path d="M 320.429688 505.839844 C 320.429688 505.839844 313.347656 534.984375 301 547.363281 C 288.65625 559.742188 267.226562 579.839844 233.207031 579.839844 C 199.1875 579.839844 170.289062 558.410156 170.289062 558.410156 L 170.289062 531.054688 L 198.558594 559.324219 L 190.175781 501.492188 L 228.15625 554.027344 L 224.652344 523.550781 L 264.808594 549.152344 L 253.761719 512.503906 L 291.777344 535.472656 L 291.777344 506.75 Z M 320.429688 505.839844 " clip-rule="nonzero"/></clipPath><clipPath id="a7955e0c99"><path d="M 1710.214844 650 L 1768 650 L 1768 735.921875 L 1710.214844 735.921875 Z M 1710.214844 650 " clip-rule="nonzero"/></clipPath><clipPath id="3c23d973f4"><path d="M 1767.28125 667.273438 L 1755.121094 667.273438 C 1739.804688 667.273438 1732.460938 676.777344 1730.839844 684.914062 L 1767.324219 684.914062 L 1767.324219 700.726562 L 1730.839844 700.726562 C 1732.460938 708.859375 1739.804688 718.363281 1755.121094 718.363281 L 1767.324219 718.363281 L 1767.324219 735.421875 L 1756.863281 735.421875 C 1724.324219 735.421875 1710.214844 713.757812 1710.214844 692.839844 C 1710.214844 671.921875 1724.324219 650.214844 1756.863281 650.214844 L 1767.324219 650.214844 Z M 1767.28125 667.273438 " clip-rule="nonzero"/></clipPath><clipPath id="7e36d6cbd7"><path d="M 1776.621094 650 L 1840 650 L 1840 735.921875 L 1776.621094 735.921875 Z M 1776.621094 650 " clip-rule="nonzero"/></clipPath><clipPath id="80dfce2988"><path d="M 1776.660156 718.613281 C 1790.898438 715.707031 1798.078125 705.582031 1798.078125 692.425781 C 1798.078125 679.269531 1790.898438 669.183594 1776.660156 666.984375 L 1776.660156 650.214844 C 1791.3125 650.214844 1802.683594 657.894531 1807.996094 669.554688 C 1813.558594 657.851562 1824.929688 650.214844 1839.582031 650.214844 L 1839.582031 667.023438 C 1825.347656 669.222656 1818.164062 679.308594 1818.164062 692.464844 C 1818.164062 705.625 1825.347656 715.707031 1839.582031 718.65625 L 1839.582031 735.464844 C 1825.347656 735.464844 1812.894531 727.082031 1808.246094 715.003906 L 1807.996094 715.003906 C 1803.390625 727.039062 1790.898438 735.464844 1776.660156 735.464844 Z M 1776.660156 718.613281 " clip-rule="nonzero"/></clipPath><clipPath id="73a4fd7970"><path d="M 1848 648.761719 L 1915 648.761719 L 1915 735.921875 L 1848 735.921875 Z M 1848 648.761719 " clip-rule="nonzero"/></clipPath><clipPath id="49161852ad"><path d="M 1848.671875 735.421875 L 1848.671875 677.855469 C 1848.671875 662.292969 1860.996094 648.761719 1881.625 648.761719 C 1901.296875 648.761719 1914.578125 661.671875 1914.578125 677.855469 C 1914.578125 693.792969 1901.960938 706.953125 1881.625 706.953125 L 1874.277344 706.953125 L 1874.277344 689.933594 C 1885.527344 689.933594 1894.492188 688.605469 1894.492188 677.980469 C 1894.492188 670.304688 1889.46875 665.820312 1881.625 665.820312 C 1873.78125 665.820312 1868.757812 670.304688 1868.757812 677.980469 L 1868.757812 735.421875 Z M 1848.671875 735.421875 " clip-rule="nonzero"/></clipPath><clipPath id="380cbc8fde"><path d="M 1921 650 L 1979 650 L 1979 735.921875 L 1921 735.921875 Z M 1921 650 " clip-rule="nonzero"/></clipPath><clipPath id="f75df1b66f"><path d="M 1978.289062 667.273438 L 1966.085938 667.273438 C 1950.769531 667.273438 1943.425781 676.777344 1941.804688 684.914062 L 1978.289062 684.914062 L 1978.289062 700.726562 L 1941.804688 700.726562 C 1943.425781 708.859375 1950.769531 718.363281 1966.085938 718.363281 L 1978.289062 718.363281 L 1978.289062 735.421875 L 1967.871094 735.421875 C 1935.332031 735.421875 1921.21875 713.757812 1921.21875 692.839844 C 1921.21875 671.921875 1935.332031 650.214844 1967.871094 650.214844 L 1978.328125 650.214844 Z M 1978.289062 667.273438 " clip-rule="nonzero"/></clipPath><clipPath id="a862be583a"><path d="M 1992 648.761719 L 2057 648.761719 L 2057 735.921875 L 1992 735.921875 Z M 1992 648.761719 " clip-rule="nonzero"/></clipPath><clipPath id="4daef6fb93"><path d="M 1992.273438 735.421875 L 1992.273438 676.984375 C 1992.273438 664.078125 2000.160156 648.761719 2025.894531 648.761719 C 2045.152344 648.761719 2054.90625 661.917969 2054.90625 674.082031 C 2054.90625 681.882812 2050.835938 688.441406 2043.117188 691.71875 C 2054.65625 695.621094 2056.273438 701.222656 2056.273438 711.183594 L 2056.273438 735.421875 L 2036.1875 735.421875 L 2036.1875 711.308594 C 2036.1875 704.75 2033.488281 701.554688 2025.476562 701.554688 L 2017.882812 701.554688 L 2017.882812 685.785156 C 2026.558594 685.785156 2034.816406 684.207031 2034.816406 675.824219 C 2034.816406 669.265625 2029.503906 665.863281 2023.570312 665.863281 C 2017.632812 665.863281 2012.320312 669.265625 2012.320312 675.824219 L 2012.320312 735.421875 Z M 1992.273438 735.421875 " clip-rule="nonzero"/></clipPath><clipPath id="6180a3729f"><path d="M 2060.050781 650.214844 L 2121.351562 650.214844 L 2121.351562 667.273438 L 2060.050781 667.273438 Z M 2080.679688 667.273438 L 2100.765625 667.273438 L 2100.765625 735.421875 L 2080.679688 735.421875 Z M 2080.679688 667.273438 " clip-rule="nonzero"/></clipPath><clipPath id="c8a3c19c03"><path d="M 2125.253906 650 L 2185 650 L 2185 735.921875 L 2125.253906 735.921875 Z M 2125.253906 650 " clip-rule="nonzero"/></clipPath><clipPath id="580dee1fe4"><path d="M 2180.621094 666.027344 L 2153.476562 666.027344 C 2148.578125 666.027344 2146.421875 668.933594 2146.421875 672.460938 C 2146.421875 680.140625 2184.105469 691.800781 2184.105469 709.609375 C 2184.105469 721.519531 2178.128906 735.421875 2157.253906 735.421875 L 2125.542969 735.421875 L 2125.542969 718.40625 L 2156.714844 718.40625 C 2160.242188 718.40625 2162.941406 715.957031 2162.941406 712.304688 C 2162.941406 703.300781 2125.253906 694.292969 2125.253906 672.875 C 2125.253906 657.0625 2138.121094 650.214844 2148.828125 650.214844 L 2180.578125 650.214844 Z M 2180.621094 666.027344 " clip-rule="nonzero"/></clipPath></defs><g clip-path="url(#9d85fc603c)"><path fill="#ffffff" d="M 848.875 629.472656 L 1093.746094 629.472656 L 1093.746094 758.132812 L 848.875 758.132812 Z M 848.875 629.472656 " fill-opacity="1" fill-rule="nonzero"/></g><g clip-path="url(#0816a2dcbb)"><path fill="#ffffff" d="M 848.875 629.472656 L 1093.746094 629.472656 L 1093.746094 758.132812 L 848.875 758.132812 Z M 848.875 629.472656 " fill-opacity="1" fill-rule="nonzero"/></g><g clip-path="url(#cf94bbc5a6)"><g clip-path="url(#c1ea7d58d4)"><path fill="#ffffff" d="M 848.875 629.472656 L 1093.746094 629.472656 L 1093.746094 758.132812 L 848.875 758.132812 Z M 848.875 629.472656 " fill-opacity="1" fill-rule="nonzero"/></g></g><g clip-path="url(#5d91b2c126)"><g clip-path="url(#9bbd9c5520)"><path fill="#ffffff" d="M 1105.027344 628.011719 L 1412.152344 628.011719 L 1412.152344 756.671875 L 1105.027344 756.671875 Z M 1105.027344 628.011719 " fill-opacity="1" fill-rule="nonzero"/></g></g><g clip-path="url(#4bba7d8893)"><g clip-path="url(#a0bae5b879)"><path fill="#ffffff" d="M 1105.027344 628.011719 L 1412.152344 628.011719 L 1412.152344 756.671875 L 1105.027344 756.671875 Z M 1105.027344 628.011719 " fill-opacity="1" fill-rule="nonzero"/></g></g><g clip-path="url(#565be53067)"><g clip-path="url(#910b2d20a0)"><path fill="#ffffff" d="M 1105.027344 628.011719 L 1412.152344 628.011719 L 1412.152344 756.671875 L 1105.027344 756.671875 Z M 1105.027344 628.011719 " fill-opacity="1" fill-rule="nonzero"/></g></g><g clip-path="url(#5aff0d3982)"><path fill="#ffffff" d="M 1105.027344 628.011719 L 1412.152344 628.011719 L 1412.152344 756.671875 L 1105.027344 756.671875 Z M 1105.027344 628.011719 " fill-opacity="1" fill-rule="nonzero"/></g><g clip-path="url(#ac81b0bfbe)"><g clip-path="url(#6436e07719)"><path fill="#ffffff" d="M 1412.839844 628.011719 L 1686.769531 628.011719 L 1686.769531 756.675781 L 1412.839844 756.675781 Z M 1412.839844 628.011719 " fill-opacity="1" fill-rule="nonzero"/></g></g><g clip-path="url(#6692fc3f9e)"><g clip-path="url(#a9639b0fb0)"><path fill="#ffffff" d="M 1412.839844 628.011719 L 1686.769531 628.011719 L 1686.769531 756.675781 L 1412.839844 756.675781 Z M 1412.839844 628.011719 " fill-opacity="1" fill-rule="nonzero"/></g></g><g clip-path="url(#43522275f4)"><g clip-path="url(#e6c80d2043)"><path fill="#ffffff" d="M 1412.839844 628.011719 L 1686.769531 628.011719 L 1686.769531 756.675781 L 1412.839844 756.675781 Z M 1412.839844 628.011719 " fill-opacity="1" fill-rule="nonzero"/></g></g><g clip-path="url(#e3c34d60f7)"><path fill="#ffffff" d="M 848.875 167.925781 L 1724.609375 167.925781 L 1724.609375 537.3125 L 848.875 537.3125 Z M 848.875 167.925781 " fill-opacity="1" fill-rule="nonzero"/></g><g clip-path="url(#f54d9d81cb)"><path fill="#231f20" d="M 848.875 167.925781 L 1724.609375 167.925781 L 1724.609375 537.3125 L 848.875 537.3125 Z M 848.875 167.925781 " fill-opacity="1" fill-rule="nonzero"/></g><g clip-path="url(#f8df55cf7f)"><g clip-path="url(#50655d8190)"><path fill="#ffffff" d="M 848.875 167.925781 L 1724.609375 167.925781 L 1724.609375 537.3125 L 848.875 537.3125 Z M 848.875 167.925781 " fill-opacity="1" fill-rule="nonzero"/></g></g><g clip-path="url(#8cbd534348)"><g clip-path="url(#03b784e530)"><path fill="#231f20" d="M 848.875 167.925781 L 1724.609375 167.925781 L 1724.609375 537.3125 L 848.875 537.3125 Z M 848.875 167.925781 " fill-opacity="1" fill-rule="nonzero"/></g></g><g clip-path="url(#abe87d2d1b)"><g clip-path="url(#d3be9193e8)"><path fill="#ff4539" d="M 848.875 167.925781 L 1724.609375 167.925781 L 1724.609375 537.3125 L 848.875 537.3125 Z M 848.875 167.925781 " fill-opacity="1" fill-rule="nonzero"/></g></g><g clip-path="url(#60cfb38018)"><g clip-path="url(#fe6dba0357)"><path fill="#231f20" d="M 848.875 167.925781 L 1724.609375 167.925781 L 1724.609375 537.3125 L 848.875 537.3125 Z M 848.875 167.925781 " fill-opacity="1" fill-rule="nonzero"/></g></g><g clip-path="url(#9316be2073)"><g clip-path="url(#df4d47d70c)"><path fill="#ffffff" d="M 848.875 167.925781 L 1724.609375 167.925781 L 1724.609375 537.3125 L 848.875 537.3125 Z M 848.875 167.925781 " fill-opacity="1" fill-rule="nonzero"/></g></g><g clip-path="url(#686ae47e40)"><g clip-path="url(#d82fd0aada)"><path fill="#231f20" d="M 848.875 167.925781 L 1724.609375 167.925781 L 1724.609375 537.3125 L 848.875 537.3125 Z M 848.875 167.925781 " fill-opacity="1" fill-rule="nonzero"/></g></g><g clip-path="url(#4bcefe1660)"><g clip-path="url(#0e1b4fb46f)"><path fill="#ffffff" d="M 76.300781 75.410156 L 847.867188 75.410156 L 847.867188 629.535156 L 76.300781 629.535156 Z M 76.300781 75.410156 " fill-opacity="1" fill-rule="nonzero"/></g></g><g clip-path="url(#385de62433)"><g clip-path="url(#4bf09a0b5a)"><path fill="#ffffff" d="M 76.300781 75.410156 L 847.867188 75.410156 L 847.867188 629.535156 L 76.300781 629.535156 Z M 76.300781 75.410156 " fill-opacity="1" fill-rule="nonzero"/></g></g><g clip-path="url(#3dc61e4c90)"><g clip-path="url(#3c38a68f43)"><path fill="#ffffff" d="M 76.300781 75.410156 L 847.867188 75.410156 L 847.867188 629.535156 L 76.300781 629.535156 Z M 76.300781 75.410156 " fill-opacity="1" fill-rule="nonzero"/></g></g><g clip-path="url(#f4bb32a619)"><g clip-path="url(#89c131f493)"><path fill="#ffffff" d="M 76.300781 75.410156 L 847.867188 75.410156 L 847.867188 629.535156 L 76.300781 629.535156 Z M 76.300781 75.410156 " fill-opacity="1" fill-rule="nonzero"/></g></g><g clip-path="url(#30977fcca3)"><g clip-path="url(#a36317a64d)"><path fill="#ffffff" d="M 76.300781 75.410156 L 847.867188 75.410156 L 847.867188 629.535156 L 76.300781 629.535156 Z M 76.300781 75.410156 " fill-opacity="1" fill-rule="nonzero"/></g></g><g clip-path="url(#452ed11045)"><g clip-path="url(#678b35e131)"><path fill="#ffffff" d="M 76.300781 75.410156 L 847.867188 75.410156 L 847.867188 629.535156 L 76.300781 629.535156 Z M 76.300781 75.410156 " fill-opacity="1" fill-rule="nonzero"/></g></g><g clip-path="url(#ee751705b4)"><g clip-path="url(#1fa74e8920)"><path fill="#ffffff" d="M 76.300781 75.410156 L 847.867188 75.410156 L 847.867188 629.535156 L 76.300781 629.535156 Z M 76.300781 75.410156 " fill-opacity="1" fill-rule="nonzero"/></g></g><g clip-path="url(#32ffff9c30)"><g clip-path="url(#43051a03c1)"><path fill="#ffffff" d="M 76.300781 75.410156 L 847.867188 75.410156 L 847.867188 629.535156 L 76.300781 629.535156 Z M 76.300781 75.410156 " fill-opacity="1" fill-rule="nonzero"/></g></g><g clip-path="url(#84093bcaa7)"><g clip-path="url(#b784562ccf)"><path fill="#ffffff" d="M 76.300781 75.410156 L 847.867188 75.410156 L 847.867188 629.535156 L 76.300781 629.535156 Z M 76.300781 75.410156 " fill-opacity="1" fill-rule="nonzero"/></g></g><g clip-path="url(#d77b48c554)"><g clip-path="url(#b0b8eea6c8)"><path fill="#ffffff" d="M 76.300781 75.410156 L 847.867188 75.410156 L 847.867188 629.535156 L 76.300781 629.535156 Z M 76.300781 75.410156 " fill-opacity="1" fill-rule="nonzero"/></g></g><g clip-path="url(#377148d797)"><g clip-path="url(#994b9b0156)"><path fill="#ffffff" d="M 76.300781 75.410156 L 847.867188 75.410156 L 847.867188 629.535156 L 76.300781 629.535156 Z M 76.300781 75.410156 " fill-opacity="1" fill-rule="nonzero"/></g></g><g clip-path="url(#a2eaaea4d0)"><g clip-path="url(#bcbd53c1bb)"><path fill="#ffffff" d="M 76.300781 75.410156 L 847.867188 75.410156 L 847.867188 629.535156 L 76.300781 629.535156 Z M 76.300781 75.410156 " fill-opacity="1" fill-rule="nonzero"/></g></g><g clip-path="url(#0f762afebc)"><g clip-path="url(#e2c425550d)"><path fill="#ffffff" d="M 76.300781 75.410156 L 847.867188 75.410156 L 847.867188 629.535156 L 76.300781 629.535156 Z M 76.300781 75.410156 " fill-opacity="1" fill-rule="nonzero"/></g></g><g clip-path="url(#a7955e0c99)"><g clip-path="url(#3c23d973f4)"><path fill="#ffffff" d="M 1689.460938 628.011719 L 2204.113281 628.011719 L 2204.113281 756.671875 L 1689.460938 756.671875 Z M 1689.460938 628.011719 " fill-opacity="1" fill-rule="nonzero"/></g></g><g clip-path="url(#7e36d6cbd7)"><g clip-path="url(#80dfce2988)"><path fill="#ffffff" d="M 1689.460938 628.011719 L 2204.113281 628.011719 L 2204.113281 756.671875 L 1689.460938 756.671875 Z M 1689.460938 628.011719 " fill-opacity="1" fill-rule="nonzero"/></g></g><g clip-path="url(#73a4fd7970)"><g clip-path="url(#49161852ad)"><path fill="#ffffff" d="M 1689.460938 628.011719 L 2204.113281 628.011719 L 2204.113281 756.671875 L 1689.460938 756.671875 Z M 1689.460938 628.011719 " fill-opacity="1" fill-rule="nonzero"/></g></g><g clip-path="url(#380cbc8fde)"><g clip-path="url(#f75df1b66f)"><path fill="#ffffff" d="M 1689.460938 628.011719 L 2204.113281 628.011719 L 2204.113281 756.671875 L 1689.460938 756.671875 Z M 1689.460938 628.011719 " fill-opacity="1" fill-rule="nonzero"/></g></g><g clip-path="url(#a862be583a)"><g clip-path="url(#4daef6fb93)"><path fill="#ffffff" d="M 1689.460938 628.011719 L 2204.113281 628.011719 L 2204.113281 756.671875 L 1689.460938 756.671875 Z M 1689.460938 628.011719 " fill-opacity="1" fill-rule="nonzero"/></g></g><g clip-path="url(#6180a3729f)"><path fill="#ffffff" d="M 1689.460938 628.011719 L 2204.113281 628.011719 L 2204.113281 756.671875 L 1689.460938 756.671875 Z M 1689.460938 628.011719 " fill-opacity="1" fill-rule="nonzero"/></g><g clip-path="url(#c8a3c19c03)"><g clip-path="url(#580dee1fe4)"><path fill="#ffffff" d="M 1689.460938 628.011719 L 2204.113281 628.011719 L 2204.113281 756.671875 L 1689.460938 756.671875 Z M 1689.460938 628.011719 " fill-opacity="1" fill-rule="nonzero"/></g></g></svg>